# xmcd
#
# Track frame offsets: 
#        150
#        18141
#        38727
#        57477
#        77435
#        101359
#        119810
#        142948
#        165330
#        190981
#        211479
#        237436
#
# Disc length: 3454 seconds
#
# Revision: 0
# Processed by: cddbd v1.5.2PL0 Copyright (c) Steve Scherf et al.
# Submitted via: ExactAudioCopy v0.95b4
#
DISCID=990d7c0c
DTITLE=Various Artist - Luxury Soul 2006 [CD3]
DYEAR=2006
DGENRE=Soul
TTITLE0=Philippe - I'm Not Alone
TTITLE1=Leon Ware - Back To Back
TTITLE2=Ronnie McNeir - Simply Ridiculous
TTITLE3=A.J. - You've Got Me Baby
TTITLE4=T.C. Carson - Truth
TTITLE5=Ali Ollie Woodson - Get Next To You
TTITLE6=Carmen Rogers - Missing You
TTITLE7=Victor Haynes - This Is Love
TTITLE8=Marylin Scott - I'm In Love (Once Again)
TTITLE9=Kloud 9 - Can't Be Love
TTITLE10=Mordern Tribe - Someday
TTITLE11=Kuh - Love Will Follow
EXTD=
EXTT0=
EXTT1=
EXTT2=
EXTT3=
EXTT4=
EXTT5=
EXTT6=
EXTT7=
EXTT8=
EXTT9=
EXTT10=
EXTT11=
PLAYORDER=
